<svg xmlns="http://www.w3.org/2000/svg" width="24" height="18" viewBox="0 0 24 18">
  <defs>
    <style>
      .cls-1 {
        fill: #b99403;
        fill-rule: evenodd;
      }
    </style>
  </defs>
  <path class="cls-1" d="M1053.74,99.3l-8.28-8.276,6.12-6.125,2.18-2.17a1.466,1.466,0,0,1,.24.772v15A1.476,1.476,0,0,1,1053.74,99.3Zm-2.69-14.932-2.79,2.794-5.35,5.346-0.93.939-9.03-9.031-1.5-1.5-0.69-.689A1.427,1.427,0,0,1,1031.5,82h21a1.5,1.5,0,0,1,.72.207l-0.76.755Zm-20.14-.923L1038.47,91l-8.24,8.244A1.468,1.468,0,0,1,1030,98.5v-15a1.467,1.467,0,0,1,.23-0.744l0.68,0.689h0ZM1039,91.53l0.32,0.317,0.11,0.113,1.03,1.031,1.5,1.5,0.06-.063,0.02,0.016,1.41-1.406,1.48-1.484,8.26,8.258a1.482,1.482,0,0,1-.69.188h-21a1.428,1.428,0,0,1-.74-0.226Z" transform="translate(-1030 -82)"/>
</svg>
