<svg id="Группа_2" data-name="Группа 2" xmlns="http://www.w3.org/2000/svg" width="83" height="83" viewBox="0 0 83 83">
  <defs>
    <style>
      .cls-1, .cls-2 {
        fill: #f5c506;
        fill-rule: evenodd;
      }

      .cls-1 {
        opacity: 0.5;
      }
    </style>
  </defs>
  <path id="Shape_8_copy_4" data-name="Shape 8 copy 4" class="cls-1" d="M142.174,50.287l18.78-.713-0.125-18.794,8.019,7.668,0.126,18.795-18.781.712Zm12.17,11.638,18.78-.713L173,42.418l8.019,7.668,0.126,18.795-18.781.712Zm47.827,45.737-0.126-18.794,18.781-.714-8.019-7.668-18.782.713,0.127,18.794ZM190,96.024L189.875,77.23l18.781-.714-8.019-7.669-18.782.713,0.127,18.794Zm10.433-66.129,0.713,18.78,18.794-.126-7.668,8.019-18.795.126-0.712-18.781ZM188.8,42.065l0.713,18.781L208.3,60.72l-7.668,8.019-18.795.126-0.713-18.781ZM143.059,89.892l18.793-.126,0.714,18.781,7.668-8.019-0.713-18.782-18.794.127ZM154.7,77.722L173.49,77.6,174.2,96.377l7.669-8.019-0.714-18.782-18.794.127Z" transform="translate(-140 -28)"/>
  <path id="Shape_8_copy_3" data-name="Shape 8 copy 3" class="cls-2" d="M139.992,83l13.08-13.5L139.992,56h11.1l13.082,13.5L151.087,83H139.992Zm16.839,0,13.081-13.5L156.831,56h11.1l13.081,13.5L167.927,83h-11.1Zm66.177,0-13.08-13.5L223.008,56H211.913L198.831,69.5,211.913,83h11.1Zm-16.839,0L193.088,69.5,206.169,56h-11.1L181.992,69.5,195.073,83h11.1ZM168,27.992l13.5,13.08L195,27.992v11.1L181.5,52.169,168,39.087v-11.1Zm0,16.839,13.5,13.08L195,44.831v11.1L181.5,69.008,168,55.927v-11.1Zm0,66.177,13.5-13.08L195,111.008v-11.1L181.5,86.831,168,99.913v11.1Zm0-16.839,13.5-13.08L195,94.169v-11.1L181.5,69.992,168,83.073v11.1Z" transform="translate(-140 -28)"/>
</svg>
