<svg id="Группа_1" data-name="Группа 1" xmlns="http://www.w3.org/2000/svg" width="54" height="54" viewBox="0 0 54 54">
  <defs>
    <style>
      .cls-1, .cls-2 {
        fill: #f5c506;
        fill-rule: evenodd;
      }

      .cls-1 {
        opacity: 0.5;
      }
    </style>
  </defs>
  <path id="Shape_8_copy_4" data-name="Shape 8 copy 4" class="cls-1" d="M141.414,1803.5l12.219-.46-0.082-12.23,5.217,4.99,0.082,12.23-12.219.46Zm7.918,7.57,12.219-.46-0.082-12.23,5.217,4.99,0.082,12.23-12.219.46Zm31.117,29.76-0.082-12.23,12.219-.46-5.217-4.99-12.22.46,0.083,12.23Zm-7.918-7.57-0.082-12.23,12.219-.47-5.217-4.98-12.22.46,0.083,12.23Zm6.787-43.03,0.464,12.22,12.228-.08-4.989,5.22-12.228.08-0.464-12.22Zm-7.571,7.92,0.463,12.22,12.228-.08-4.989,5.21-12.228.09-0.464-12.22Zm-29.757,31.12,12.227-.09,0.464,12.22,4.99-5.21-0.464-12.22-12.228.08Zm7.572-7.92,12.227-.08,0.464,12.22,4.989-5.22-0.464-12.22-12.227.08Z" transform="translate(-140 -1789)"/>
  <path id="Shape_8_copy_3" data-name="Shape 8 copy 3" class="cls-2" d="M140,1824.78l8.51-8.78-8.51-8.78h7.218l8.511,8.78-8.511,8.78H140Zm10.955,0,8.511-8.78-8.511-8.78h7.219l8.511,8.78-8.511,8.78H150.95Zm43.055,0L185.5,1816l8.51-8.78h-7.219l-8.51,8.78,8.51,8.78h7.219Zm-10.956,0-8.51-8.78,8.51-8.78h-7.218L167.32,1816l8.511,8.78h7.218Zm-24.829-35.79,8.78,8.51,8.78-8.51v7.22l-8.78,8.51-8.78-8.51v-7.22Zm0,10.96,8.78,8.51,8.78-8.51v7.22l-8.78,8.51-8.78-8.51v-7.22Zm0,43.06,8.78-8.51,8.78,8.51v-7.22l-8.78-8.51-8.78,8.51v7.22Zm0-10.96,8.78-8.51,8.78,8.51v-7.22l-8.78-8.51-8.78,8.51v7.22Z" transform="translate(-140 -1789)"/>
</svg>
