<svg xmlns="http://www.w3.org/2000/svg" width="19" height="19" viewBox="0 0 19 19">
  <defs>
    <style>
      .cls-1 {
        fill: #b99403;
        fill-rule: evenodd;
      }
    </style>
  </defs>
  <path class="cls-1" d="M907.958,83.578a2.444,2.444,0,1,0,3.46,3.453l1.4-1.4A4.817,4.817,0,0,1,913,86.883a4.831,4.831,0,0,1-6.16,4.7c-0.014.014-.018,0.034-0.032,0.048l-8.65,8.632a2.444,2.444,0,0,1-3.46-3.453l8.65-8.633c0.015-.015.035-0.019,0.05-0.033a4.829,4.829,0,0,1,5.96-5.961ZM896.485,97.871a0.61,0.61,0,1,0,.612.61A0.611,0.611,0,0,0,896.485,97.871Z" transform="translate(-894 -82)"/>
</svg>
