<svg xmlns="http://www.w3.org/2000/svg" width="163" height="133" viewBox="0 0 163 133">
  <defs>
    <style>
      .cls-1 {
        fill: #bc7d00;
        fill-opacity: 0.9;
        fill-rule: evenodd;
      }
    </style>
  </defs>
  <path id="twitter" class="cls-1" d="M1075,962.313l-15.28,15.313v2.552a33.052,33.052,0,0,1-1.1,8.069c-0.36,21.063-7.06,49-34.56,71.053-54.1,43.37-112.061,5.1-112.061,5.1,45.844,0,45.844-15.31,45.844-15.31-10.188,0-30.563-20.42-30.563-20.42,5.094,5.1,15.282,0,15.282,0-25.47-15.31-25.47-30.626-25.47-30.626,5.094,5.106,15.282,0,15.282,0-25.469-20.418-10.188-45.941-10.188-45.941,5.094,25.523,71.313,35.732,71.313,35.732l0.842-.423a60.7,60.7,0,0,1-.842-9.786C993.5,959.3,1008.32,947,1026.61,947a32.857,32.857,0,0,1,25.04,11.7l2.97-1.49L1069.91,947l-10.19,20.418Z" transform="translate(-912 -947)"/>
</svg>
