<svg xmlns="http://www.w3.org/2000/svg" width="15" height="15" viewBox="0 0 15 15">
  <defs>
    <style>
      .cls-1 {
        fill: #f5c506;
        fill-rule: evenodd;
      }
    </style>
  </defs>
  <path class="cls-1" d="M674.371,460.977v-0.958H680v0.958h-5.629Zm-0.186-2.8,5.075-2.428,0.416,0.863-5.077,2.429Zm-0.434-2.136L677.239,453l0.52,0.593-3.489,3.042Zm-5.49,7.306v-5.7c1.447-1.32,3.208-2,4.415-3.469v12.638C671.469,465.342,669.709,464.666,668.261,463.347ZM665,457.659h2.915v5.646H665v-5.646Zm12.759,9.746L677.24,468l-3.489-3.041,0.52-.593Zm-3.35-5.4,5.075,2.428-0.414.864-5.077-2.428Z" transform="translate(-665 -453)"/>
</svg>
